<?xml version="1.0" standalone="no"?>
<!DOCTYPE svg PUBLIC "-//W3C//DTD SVG 20010904//EN"
 "http://www.w3.org/TR/2001/REC-SVG-20010904/DTD/svg10.dtd">
<svg version="1.0" xmlns="http://www.w3.org/2000/svg"
 width="100.000000pt" height="100.000000pt" viewBox="0 0 100.000000 100.000000"
 preserveAspectRatio="xMidYMid meet">
<metadata>
Created by potrace 1.11, written by Peter Selinger 2001-2013
</metadata>
<g transform="translate(0.000000,100.000000) scale(0.100000,-0.100000)"
fill="#000000" stroke="none">
<path d="M64 984 c19 -18 21 -31 4 -16 -10 8 -13 4 -14 -14 -1 -13 3 -24 10
-24 6 0 4 -5 -4 -10 -12 -8 -12 -10 5 -11 l20 0 -20 -9 c-13 -6 -15 -9 -5 -9
13 -1 13 -2 0 -11 -10 -6 -11 -10 -2 -10 6 0 12 -5 12 -11 0 -5 -4 -8 -8 -5
-4 2 -8 -6 -8 -19 0 -13 4 -21 8 -19 10 6 11 -10 1 -20 -9 -9 -11 -46 -2 -46
4 0 10 -7 13 -16 5 -13 3 -14 -6 -6 -10 8 -13 4 -14 -14 -1 -13 3 -24 10 -24
6 0 4 -5 -4 -10 -12 -8 -12 -10 5 -11 l20 0 -20 -9 c-13 -6 -15 -9 -5 -9 13
-1 13 -2 0 -11 -10 -6 -11 -10 -2 -10 6 0 12 -5 12 -11 0 -5 -4 -8 -8 -5 -4 2
-8 -6 -8 -19 0 -13 4 -21 8 -19 10 6 11 -10 1 -20 -9 -9 -11 -46 -2 -46 4 0
10 -7 13 -16 5 -13 3 -14 -6 -6 -10 8 -13 4 -14 -14 -1 -13 3 -24 10 -24 6 0
4 -5 -4 -10 -12 -8 -12 -10 5 -11 l20 0 -20 -9 c-13 -6 -15 -9 -5 -9 13 -1 13
-2 0 -11 -10 -6 -11 -10 -2 -10 6 0 12 -5 12 -11 0 -5 -4 -8 -8 -5 -4 2 -8 -6
-8 -19 0 -13 4 -21 8 -19 10 6 11 -10 1 -20 -9 -9 -11 -46 -2 -46 4 0 10 -7
13 -16 5 -13 3 -14 -6 -6 -10 8 -13 4 -14 -14 -1 -13 3 -24 10 -24 6 0 4 -5
-4 -10 -12 -8 -12 -10 5 -11 l20 0 -20 -9 c-13 -6 -15 -9 -5 -9 13 -1 13 -2 0
-11 -10 -6 -11 -10 -2 -10 6 0 12 -5 12 -11 0 -5 -4 -8 -8 -5 -4 2 -8 -6 -8
-19 0 -13 4 -21 8 -19 10 6 11 -10 1 -19 -10 -10 -10 -57 0 -57 4 0 5 -4 2
-10 -4 -7 91 -10 279 -10 256 0 318 5 288 24 -5 3 -7 20 -5 38 4 27 2 30 -7
18 -10 -13 -11 -12 -6 3 3 10 6 21 6 23 0 3 4 3 8 0 11 -7 8 31 -3 41 -4 5 -5
2 0 -6 6 -10 4 -12 -4 -6 -9 5 -10 10 -2 18 6 6 11 22 11 37 0 20 -2 22 -11
10 -9 -12 -10 -12 -5 3 3 10 6 21 6 23 0 3 4 3 8 0 11 -7 8 31 -3 41 -4 5 -5
2 0 -6 6 -10 4 -12 -4 -6 -9 5 -10 10 -2 18 6 6 11 22 11 37 0 20 -2 22 -11
10 -9 -12 -10 -12 -5 3 3 10 6 21 6 23 0 3 3 3 8 1 4 -3 7 5 7 18 0 15 -5 21
-14 17 -9 -3 -8 4 5 24 11 15 13 25 7 21 -16 -10 -16 -2 -3 23 9 16 8 18 -6
13 -14 -5 -14 -2 2 23 11 15 13 25 7 21 -16 -10 -16 -2 -3 23 9 16 8 18 -6 13
-14 -5 -14 -2 2 23 11 15 13 25 6 21 -15 -10 -15 -2 -2 23 9 16 8 18 -6 13
-14 -5 -14 -2 2 23 11 15 13 25 7 21 -16 -10 -16 -2 -3 23 9 16 8 18 -6 13
-14 -5 -14 -2 2 23 11 15 13 25 7 21 -16 -10 -16 -2 -3 23 9 16 8 18 -6 13
-14 -5 -14 -2 2 23 11 15 13 25 6 21 -15 -10 -15 -2 -2 23 9 16 8 18 -6 13
-14 -5 -14 -2 2 23 11 15 13 25 7 21 -16 -10 -16 -2 -3 23 9 16 8 18 -6 13
-14 -5 -14 -2 2 23 11 15 13 25 7 21 -7 -5 -13 -4 -13 2 0 15 -117 14 -126 0
-3 -6 0 -15 7 -20 12 -7 11 -9 -1 -9 -13 0 -13 -1 0 -10 13 -8 13 -11 1 -22
-11 -11 -13 -11 -6 1 6 10 4 12 -5 6 -10 -6 -9 -11 6 -22 19 -14 19 -15 0 -29
-19 -13 -11 -20 18 -15 5 1 4 -5 -3 -13 -7 -8 -9 -21 -5 -27 4 -8 3 -9 -4 -5
-7 4 -12 2 -12 -3 0 -6 6 -11 13 -11 8 0 7 -4 -3 -10 -13 -9 -13 -10 0 -10 11
0 10 -4 -4 -12 -19 -11 -19 -11 0 -25 19 -14 19 -14 0 -29 -19 -13 -11 -20 18
-15 5 1 4 -5 -3 -13 -7 -8 -9 -21 -5 -27 4 -8 3 -9 -4 -5 -7 4 -12 2 -12 -3 0
-6 6 -11 13 -11 9 0 8 -3 -2 -9 -11 -7 -11 -9 0 -14 12 -4 12 -7 0 -18 -12
-12 -13 -12 -6 0 6 10 4 12 -5 6 -10 -6 -9 -11 6 -22 19 -14 19 -15 0 -29 -19
-13 -11 -20 18 -15 5 1 4 -5 -3 -13 -7 -8 -9 -21 -5 -27 4 -8 3 -9 -4 -5 -7 4
-12 2 -12 -3 0 -6 6 -11 13 -11 8 0 7 -4 -3 -10 -13 -8 -13 -10 -1 -10 11 0
10 -4 -4 -14 -18 -13 -18 -13 1 -25 19 -11 19 -11 0 -26 -19 -14 -11 -21 18
-16 5 1 4 -4 -2 -12 -9 -10 -9 -17 1 -26 9 -10 9 -11 -4 -6 -18 7 -23 -25 -5
-38 7 -5 5 -12 -8 -22 -19 -14 -11 -21 18 -16 5 1 4 -4 -3 -12 -16 -21 -23
-60 -10 -67 13 -9 0 -41 -15 -34 -6 3 -2 -2 9 -11 19 -16 19 -16 -8 -11 -15 3
-25 1 -22 -4 3 -5 1 -11 -5 -15 -5 -3 -10 2 -10 12 0 14 -2 15 -9 4 -6 -9 -10
-10 -16 -2 -4 8 -11 9 -19 2 -7 -6 -18 -6 -25 -1 -18 11 -43 1 -34 -14 4 -6
-1 -4 -11 4 -23 18 -44 21 -53 8 -4 -7 -1 -8 7 -3 9 5 11 4 6 -3 -5 -9 -15 -7
-34 6 -14 9 -23 11 -19 5 5 -7 6 -13 4 -13 -8 0 -67 32 -67 36 0 3 5 2 10 -1
6 -3 10 -1 10 4 0 6 -8 11 -17 11 -14 1 -12 4 7 15 14 8 20 14 13 15 -7 0 -10
10 -7 25 2 14 0 25 -6 25 -5 0 -10 5 -10 11 0 5 3 8 8 6 9 -6 7 102 -3 126 -5
12 -3 16 6 14 8 -2 11 -2 6 0 -4 3 -4 10 -1 15 4 7 2 8 -4 4 -7 -4 -12 -1 -12
9 0 9 5 13 11 9 8 -5 8 -1 0 14 -14 27 -14 32 2 28 6 -1 9 -1 4 1 -4 3 -4 10
-1 15 4 6 2 8 -3 5 -6 -4 -14 0 -17 9 -3 8 -2 12 4 9 6 -3 10 0 11 7 5 73 4
118 -3 118 -4 0 -8 5 -8 11 0 5 6 7 13 4 6 -4 3 1 -7 9 -19 16 -19 16 -1 16
15 0 16 3 7 12 -7 7 -12 17 -12 23 0 5 5 3 10 -5 7 -12 9 -10 7 7 0 12 -4 20
-8 17 -4 -2 -10 3 -13 12 -3 8 -2 13 3 10 5 -3 11 3 14 14 3 11 1 23 -4 26 -5
3 -5 12 0 23 6 10 6 23 0 32 -12 20 -11 29 4 25 6 -1 9 -1 4 1 -4 3 -4 10 -1
15 4 7 2 8 -4 4 -7 -4 -12 -1 -12 9 0 9 5 13 11 9 8 -5 8 -1 0 14 -14 27 -14
32 2 28 6 -1 9 -1 4 1 -4 3 -4 10 -1 15 4 7 2 8 -4 4 -7 -4 -12 -2 -12 3 0 7
-26 11 -66 11 -59 0 -64 -1 -50 -16z m123 -359 c0 -8 -4 -15 -9 -15 -10 0 -11
14 -1 23 9 10 10 9 10 -8z m1 -70 c-3 -3 -9 2 -12 12 -6 14 -5 15 5 6 7 -7 10
-15 7 -18z m-1 -330 c0 -8 -4 -15 -9 -15 -10 0 -11 14 -1 23 9 10 10 9 10 -8z"/>
<path d="M812 983 c7 -9 7 -13 -1 -13 -7 0 -8 -11 -4 -32 5 -25 3 -29 -8 -23
-12 8 -12 6 0 -8 7 -9 10 -17 6 -17 -5 0 0 -9 10 -20 13 -14 14 -19 4 -15 -11
4 -14 -5 -13 -44 0 -27 6 -56 13 -65 12 -14 12 -16 -1 -11 -11 4 -14 -2 -13
-28 1 -18 5 -39 9 -45 4 -7 3 -12 -3 -12 -6 0 -8 -12 -4 -32 5 -25 3 -29 -8
-23 -12 8 -12 6 0 -8 7 -9 10 -17 6 -17 -5 0 0 -9 10 -20 13 -14 14 -19 4 -15
-11 4 -14 -5 -13 -44 0 -27 6 -56 13 -65 12 -14 12 -16 -1 -11 -12 5 -14 -3
-11 -37 4 -51 4 -48 0 -122 -2 -34 2 -69 10 -83 10 -20 10 -24 0 -20 -9 3 -12
-14 -12 -68 0 -41 3 -71 7 -69 5 3 8 0 8 -5 0 -12 112 -16 123 -5 9 10 -4 34
-16 27 -6 -3 -7 -1 -3 6 6 9 11 9 22 0 12 -10 13 -9 8 5 -3 9 -11 16 -16 16
-6 0 -5 6 2 15 9 10 9 15 1 15 -6 0 -11 5 -11 11 0 5 6 7 13 3 7 -5 6 0 -3 11
-9 11 -10 16 -2 11 6 -4 12 -2 12 3 0 6 -5 11 -11 11 -8 0 -8 5 1 15 9 10 9
15 1 15 -6 0 -11 5 -11 11 0 5 6 7 13 3 7 -5 6 0 -3 11 -9 11 -10 16 -2 11 6
-4 12 -2 12 3 0 6 -5 11 -11 11 -8 0 -8 5 1 15 9 10 9 15 1 15 -6 0 -11 5 -11
11 0 5 6 7 13 3 7 -5 6 0 -3 11 -9 11 -10 16 -2 11 6 -4 12 -2 12 3 0 6 -5 11
-11 11 -8 0 -8 5 1 15 9 10 9 15 1 15 -6 0 -11 5 -11 11 0 5 5 7 11 3 7 -4 7
1 -1 16 -8 15 -8 20 -1 16 6 -4 11 -2 11 3 0 6 -4 11 -9 11 -6 0 -9 9 -8 20 1
13 6 19 15 15 12 -5 12 -2 0 17 -8 13 -18 32 -21 43 l-7 20 16 -20 c16 -20 16
-20 10 2 -16 51 -16 65 0 59 12 -4 12 -2 4 15 -6 11 -14 18 -18 15 -4 -2 -7 7
-7 20 0 23 1 23 14 7 12 -17 13 -16 7 4 -16 53 -16 65 1 58 14 -5 13 -2 -3 16
-10 12 -13 19 -6 15 6 -4 12 -2 12 3 0 6 -4 11 -9 11 -6 0 -9 9 -8 20 1 13 6
19 15 15 12 -5 12 -2 0 17 -8 13 -18 32 -21 43 l-7 20 16 -20 c16 -20 16 -20
10 2 -16 51 -16 65 0 59 12 -4 12 -2 4 15 -6 11 -14 18 -18 15 -4 -2 -7 7 -7
20 0 23 1 23 14 7 12 -17 13 -16 7 4 -16 51 -16 65 0 59 9 -3 12 -2 9 5 -4 6
-37 9 -80 8 -59 -3 -72 -6 -63 -16z m13 -82 c3 -5 2 -12 -3 -15 -5 -3 -9 1 -9
9 0 17 3 19 12 6z m0 -120 c3 -5 2 -12 -3 -15 -5 -3 -9 1 -9 9 0 17 3 19 12 6z
m0 -200 c3 -5 2 -12 -3 -15 -5 -3 -9 1 -9 9 0 17 3 19 12 6z m0 -120 c3 -5 2
-12 -3 -15 -5 -3 -9 1 -9 9 0 17 3 19 12 6z m-1 -187 c3 -8 2 -12 -4 -9 -6 3
-10 10 -10 16 0 14 7 11 14 -7z m1 -53 c3 -5 2 -12 -3 -15 -5 -3 -9 1 -9 9 0
17 3 19 12 6z m-2 -176 c-7 -21 -12 -19 -10 4 0 11 5 18 9 15 4 -3 5 -11 1
-19z"/>
</g>
</svg>
